<?xml version="1.0" encoding="UTF-8" standalone="no"?>
<!-- Created with Inkscape (http://www.inkscape.org/) -->

<svg
   xmlns:dc="http://purl.org/dc/elements/1.1/"
   xmlns:cc="http://creativecommons.org/ns#"
   xmlns:rdf="http://www.w3.org/1999/02/22-rdf-syntax-ns#"
   xmlns:svg="http://www.w3.org/2000/svg"
   xmlns="http://www.w3.org/2000/svg"
   xmlns:sodipodi="http://sodipodi.sourceforge.net/DTD/sodipodi-0.dtd"
   xmlns:inkscape="http://www.inkscape.org/namespaces/inkscape"
   width="100"
   height="100"
   viewBox="0 0 100 99.999998"
   id="svg2"
   version="1.1"
   inkscape:version="0.91 r13725"
   sodipodi:docname="ubuntu.svg"
   inkscape:export-filename="C:\Users\cheche\Documents\programmiertes\kniitting\kniteditor\images\flags\de.png"
   inkscape:export-xdpi="2.7"
   inkscape:export-ydpi="2.7">
  <defs
     id="defs4" />
  <sodipodi:namedview
     id="base"
     pagecolor="#ffffff"
     bordercolor="#666666"
     borderopacity="1.0"
     inkscape:pageopacity="0.0"
     inkscape:pageshadow="2"
     inkscape:zoom="5.6"
     inkscape:cx="59.250385"
     inkscape:cy="39.231099"
     inkscape:document-units="px"
     inkscape:current-layer="layer1"
     showgrid="false"
     inkscape:object-paths="true"
     units="px"
     fit-margin-top="0"
     fit-margin-left="0"
     fit-margin-right="0"
     fit-margin-bottom="0"
     inkscape:window-width="1920"
     inkscape:window-height="1005"
     inkscape:window-x="-9"
     inkscape:window-y="-9"
     inkscape:window-maximized="1"
     inkscape:object-nodes="false" />
  <metadata
     id="metadata7">
    <rdf:RDF>
      <cc:Work
         rdf:about="">
        <dc:format>image/svg+xml</dc:format>
        <dc:type
           rdf:resource="http://purl.org/dc/dcmitype/StillImage" />
        <dc:title></dc:title>
        <cc:license
           rdf:resource="http://creativecommons.org/licenses/by/3.0/" />
        <dc:creator>
          <cc:Agent>
            <dc:title>Nicco Kunzmann</dc:title>
          </cc:Agent>
        </dc:creator>
      </cc:Work>
      <cc:License
         rdf:about="http://creativecommons.org/licenses/by/3.0/">
        <cc:permits
           rdf:resource="http://creativecommons.org/ns#Reproduction" />
        <cc:permits
           rdf:resource="http://creativecommons.org/ns#Distribution" />
        <cc:requires
           rdf:resource="http://creativecommons.org/ns#Notice" />
        <cc:requires
           rdf:resource="http://creativecommons.org/ns#Attribution" />
        <cc:permits
           rdf:resource="http://creativecommons.org/ns#DerivativeWorks" />
      </cc:License>
    </rdf:RDF>
  </metadata>
  <g
     inkscape:label="Ebene 1"
     inkscape:groupmode="layer"
     id="layer1"
     transform="translate(207.63963,-343.8583)">
    <path
       style="opacity:1;fill:#000000;fill-opacity:1;stroke:none;stroke-width:5;stroke-linecap:square;stroke-miterlimit:4;stroke-dasharray:none;stroke-dashoffset:0"
       d="m -157.63964,343.8583 a 49.99975,49.99975 0 0 0 -49.99999,50.00001 49.99975,49.99975 0 0 0 49.99999,49.99999 49.99975,49.99975 0 0 0 50.00001,-49.99999 49.99975,49.99975 0 0 0 -50.00001,-50.00001 z m 17.96492,14.10383 a 6.5924733,6.5924733 0 0 1 6.59156,6.59354 6.5924733,6.5924733 0 0 1 -6.59156,6.59156 6.5924733,6.5924733 0 0 1 -6.59354,-6.59156 6.5924733,6.5924733 0 0 1 6.59354,-6.59354 z m -17.96492,5.99953 a 29.896062,29.896062 0 0 1 9.11414,1.45137 8.9006357,8.9006357 0 0 0 8.85078,8.04293 8.9006357,8.9006357 0 0 0 3.25321,-0.61975 29.896062,29.896062 0 0 1 8.56763,18.80445 l -11.04664,0 a 18.893246,18.893246 0 0 0 -18.73912,-16.67591 18.893246,18.893246 0 0 0 -6.71035,1.2395 l -5.5362,-9.58933 a 29.896062,29.896062 0 0 1 12.24655,-2.65326 z m -16.14525,4.7719 5.50649,9.5339 a 18.893246,18.893246 0 0 0 -8.25479,15.59085 18.893246,18.893246 0 0 0 8.4825,15.75122 l -5.50847,9.53786 a 29.896062,29.896062 0 0 1 -12.80295,-17.10756 8.9006357,8.9006357 0 0 0 4.62735,-7.79542 8.9006357,8.9006357 0 0 0 -4.79565,-7.88848 29.896062,29.896062 0 0 1 12.74552,-17.62237 z m -16.85213,18.91929 a 6.5924733,6.5924733 0 0 1 6.59354,6.59156 6.5924733,6.5924733 0 0 1 -6.59354,6.59353 6.5924733,6.5924733 0 0 1 -6.59156,-6.59353 6.5924733,6.5924733 0 0 1 6.59156,-6.59156 z m 51.74639,8.4231 11.06052,0 a 29.896062,29.896062 0 0 1 -9.3062,19.48756 8.9006357,8.9006357 0 0 0 -2.99184,-0.53065 8.9006357,8.9006357 0 0 0 -8.76564,7.40932 29.896062,29.896062 0 0 1 -8.74585,1.31276 29.896062,29.896062 0 0 1 -11.98518,-2.54831 l 5.54807,-9.60914 a 18.893246,18.893246 0 0 0 6.43711,1.15436 18.893246,18.893246 0 0 0 18.74901,-16.6759 z m -1.23752,21.26564 a 6.5924733,6.5924733 0 0 1 6.59155,6.59155 6.5924733,6.5924733 0 0 1 -6.59155,6.59354 6.5924733,6.5924733 0 0 1 -6.59155,-6.59354 6.5924733,6.5924733 0 0 1 6.59155,-6.59155 z"
       id="path5299"
       inkscape:connector-curvature="0" />
  </g>
</svg>
